PathFileType	4	(X/Y/Z)	OpenSim_Sub01_EMGBaseline_Magnet.trc
DataRate	CameraRate	NumFrames	NumMarkers	Units	OrigDataRate	OrigDataStartFrame	OrigNumFrames
100	100	23	8	m	100	1	7604
Frame#	Time	torso_imu_offset_imu	pelvis_imu_offset_imu	tibia_r_imu_offset_imu	femur_r_imu_offset_imu	tibia_l_imu_offset_imu	femur_l_imu_offset_imu	toes_r_imu_offset_imu	toes_l_imu_offset_imu
				X1	Y1	Z1	X2	Y2	Z2	X3	Y3	Z3	X4	Y4	Z4	X5	Y5	Z5	X6	Y6	Z6	X7	Y7	Z7	X8		Y8	Z8	

1	0	-0.94069863	-0.09596813	0.05822160	-0.72583383	0.12486507	-0.59904116	-0.56859464	-0.59669843	-0.11642929	-0.64476373	-0.52671161	-0.01523524	-0.56456092	0.58399920	0.16591517	-0.44341158	0.07071039	0.34427716	-0.70295518	-0.14219618	-0.38060159	-0.71454174	-0.17797018	-0.36873260
2	0.01000000	-0.94005379	-0.09811367	0.05580210	-0.72945312	0.12467700	-0.59669625	-0.56539461	-0.59991059	-0.11784421	-0.64735351	-0.52780388	-0.01608080	-0.56745007	0.58513035	0.16478950	-0.44367726	0.07291435	0.34450591	-0.69964037	-0.14344906	-0.38503953	-0.71273672	-0.17703493	-0.36554219
3	0.02000000	-0.94032944	-0.09938876	0.05557409	-0.73030926	0.12561835	-0.59599491	-0.56312401	-0.60130241	-0.11777115	-0.65015907	-0.52832288	-0.01695813	-0.57030692	0.58597095	0.16484895	-0.44327667	0.07453327	0.34359756	-0.69828188	-0.14399978	-0.38717660	-0.71313843	-0.17619846	-0.36313763
4	0.03000000	-0.94299438	-0.09854266	0.05890186	-0.72617786	0.12703081	-0.59766943	-0.56348322	-0.59941491	-0.11491373	-0.65212468	-0.52777064	-0.01825507	-0.57194079	0.58560040	0.16578283	-0.44212710	0.07411217	0.34156626	-0.70054198	-0.14249051	-0.38422482	-0.71734483	-0.17573525	-0.36302807
5	0.04000000	-0.94604314	-0.09740823	0.06295160	-0.72097585	0.12781385	-0.59997783	-0.56510504	-0.59612297	-0.11198741	-0.65252600	-0.52661213	-0.01908920	-0.57237383	0.58435538	0.16690431	-0.44120477	0.07273583	0.33958179	-0.70378550	-0.14054765	-0.37990961	-0.72030174	-0.17593703	-0.36472786
6	0.05000000	-0.94699353	-0.09820709	0.06434245	-0.71947319	0.12689481	-0.60086445	-0.56614624	-0.59382561	-0.11221603	-0.65080054	-0.52546832	-0.01845766	-0.57186558	0.58281174	0.16749854	-0.44158103	0.07188350	0.33895408	-0.70479784	-0.14020432	-0.37885424	-0.71627924	-0.17703260	-0.36735657
7	0.06000000	-0.94584173	-0.10044676	0.06312257	-0.72221441	0.12484130	-0.60042490	-0.56612720	-0.59354136	-0.11533188	-0.64789100	-0.52463067	-0.01706916	-0.57087282	0.58164599	0.16747222	-0.44282111	0.07191053	0.33989333	-0.70358356	-0.14132386	-0.38109809	-0.70783981	-0.17826123	-0.36964488
8	0.07000000	-0.94449112	-0.10154628	0.06197895	-0.72649148	0.12348309	-0.60041024	-0.56561801	-0.59522568	-0.11838017	-0.64589818	-0.52413698	-0.01694909	-0.57000405	0.58161179	0.16721053	-0.44333142	0.07230717	0.34176294	-0.70262449	-0.14209990	-0.38315275	-0.70392635	-0.17810103	-0.37002485
9	0.08000000	-0.94406633	-0.10003077	0.06264089	-0.72986563	0.12396232	-0.60175909	-0.56516993	-0.59833480	-0.11923751	-0.64613189	-0.52398686	-0.01907939	-0.56969985	0.58306271	0.16704593	-0.44227887	0.07259939	0.34370428	-0.70344564	-0.14141771	-0.38273192	-0.70958546	-0.17577970	-0.36794093
10	0.09000000	-0.94323220	-0.09787159	0.06379025	-0.73094665	0.12528134	-0.60286958	-0.56519806	-0.60092273	-0.11845652	-0.64746311	-0.52408577	-0.02124060	-0.56989020	0.58515762	0.16711781	-0.44117872	0.07248561	0.34426356	-0.70453943	-0.14034545	-0.38139073	-0.71779852	-0.17281048	-0.36586863
11	0.10000000	-0.94039332	-0.09750171	0.06367694	-0.72870215	0.12611250	-0.60184344	-0.56603777	-0.60095091	-0.11707580	-0.64838120	-0.52431383	-0.02083055	-0.57039125	0.58687691	0.16749349	-0.44180607	0.07173342	0.34206065	-0.70397986	-0.14026455	-0.38125406	-0.71987347	-0.17103536	-0.36662746
12	0.11000000	-0.93686442	-0.09872742	0.06251829	-0.72455297	0.12610970	-0.59937567	-0.56720794	-0.59887457	-0.11600283	-0.64841221	-0.52443174	-0.01837666	-0.57072778	0.58783599	0.16769648	-0.44332769	0.07066883	0.33846410	-0.70196921	-0.14120490	-0.38234441	-0.71545635	-0.17089291	-0.36979945
13	0.12000000	-0.93619914	-0.09933384	0.06204562	-0.72180750	0.12568241	-0.59815656	-0.56759939	-0.59706796	-0.11604386	-0.64788028	-0.52410858	-0.01681453	-0.57020070	0.58813906	0.16683214	-0.44290369	0.07004740	0.33695714	-0.70034765	-0.14215628	-0.38306636	-0.71061049	-0.17174137	-0.37247506
14	0.13000000	-0.94021362	-0.09813481	0.06333718	-0.72255111	0.12527997	-0.59955538	-0.56666498	-0.59700545	-0.11756602	-0.64709832	-0.52340472	-0.01783660	-0.56867269	0.58782209	0.16464217	-0.43933221	0.07024140	0.33943817	-0.70043052	-0.14240561	-0.38242922	-0.70972736	-0.17293310	-0.37261908
15	0.14000000	-0.94539001	-0.09715554	0.06541497	-0.72509087	0.12541246	-0.60086364	-0.56557566	-0.59734082	-0.11963935	-0.64628502	-0.52355011	-0.01925728	-0.56769273	0.58668092	0.16279108	-0.43643189	0.07045125	0.34293465	-0.70184849	-0.14220232	-0.38136288	-0.71174009	-0.17388569	-0.37098460
16	0.15000000	-0.94748646	-0.09879393	0.06699355	-0.72714576	0.12651890	-0.59891393	-0.56571409	-0.59634052	-0.12113064	-0.64564361	-0.52582700	-0.01835570	-0.56897399	0.58453789	0.16315346	-0.43859085	0.06974518	0.34382939	-0.70391472	-0.14196119	-0.38108796	-0.71461070	-0.17408467	-0.36881008
17	0.16000000	-0.94618406	-0.10214079	0.06787596	-0.72808782	0.12780747	-0.59495325	-0.56687786	-0.59427863	-0.12145278	-0.64540711	-0.52906465	-0.01512912	-0.57202183	0.58227607	0.16542853	-0.44482863	0.06845478	0.34233390	-0.70585235	-0.14190864	-0.38186220	-0.71687024	-0.17385216	-0.36688268
18	0.17000000	-0.94418308	-0.10374226	0.06870286	-0.72856151	0.12753952	-0.59362520	-0.56764475	-0.59297412	-0.12043935	-0.64583130	-0.53020497	-0.01166715	-0.57464242	0.58159439	0.16764145	-0.45003335	0.06788375	0.34160605	-0.70681555	-0.14212598	-0.38320210	-0.71748824	-0.17415385	-0.36564212
19	0.18000000	-0.94336670	-0.10160963	0.06980781	-0.72910676	0.12491612	-0.59757748	-0.56711419	-0.59351349	-0.11830368	-0.64692723	-0.52751652	-0.00987746	-0.57516862	0.58329820	0.16852318	-0.45072306	0.06873762	0.34348595	-0.70634009	-0.14251032	-0.38456562	-0.71601636	-0.17540542	-0.36550858
20	0.19000000	-0.94295929	-0.09830224	0.07054774	-0.72985569	0.12200300	-0.60326741	-0.56602896	-0.59468860	-0.11635524	-0.64797700	-0.52335403	-0.01096734	-0.57362831	0.58547541	0.16902994	-0.44857471	0.06987029	0.34567300	-0.70510104	-0.14242261	-0.38529342	-0.71370251	-0.17633917	-0.36687065
21	0.20000000	-0.94180152	-0.09705564	0.07017615	-0.73082032	0.12125514	-0.60623566	-0.56538398	-0.59495562	-0.11600155	-0.64817099	-0.52069362	-0.01578730	-0.57043248	0.58587153	0.17039969	-0.44611566	0.06989187	0.34532390	-0.70394628	-0.14119735	-0.38478444	-0.71202920	-0.17550009	-0.36999636
22	0.21000000	-0.94034737	-0.09864147	0.06910128	-0.73134363	0.12302657	-0.60543204	-0.56540096	-0.59409531	-0.11708508	-0.64734308	-0.52050461	-0.02178707	-0.56703609	0.58462637	0.17193010	-0.44432622	0.06888765	0.34292999	-0.70315837	-0.13925675	-0.38363358	-0.71129659	-0.17328758	-0.37343648
23	0.22000000	-0.94029200	-0.10193458	0.06861981	-0.73025414	0.12605416	-0.60243076	-0.56570648	-0.59290809	-0.11824383	-0.64582268	-0.52221133	-0.02380044	-0.56569681	0.58372231	0.17142615	-0.44299577	0.06807809	0.34154851	-0.70258454	-0.13786009	-0.38335583	-0.71089484	-0.17152823	-0.37442084
